<?xml version="1.0" encoding="utf-8"?>
<!-- Generator: Adobe Illustrator 22.1.0, SVG Export Plug-In . SVG Version: 6.00 Build 0)  -->
<svg version="1.1"
	 id="svg3524" inkscape:version="0.92.3 (2405546, 2018-03-11)" sodipodi:docname="sourcedesk.svg" xmlns:cc="http://creativecommons.org/ns#" xmlns:dc="http://purl.org/dc/elements/1.1/" xmlns:inkscape="http://www.inkscape.org/namespaces/inkscape" xmlns:rdf="http://www.w3.org/1999/02/22-rdf-syntax-ns#" xmlns:sodipodi="http://sodipodi.sourceforge.net/DTD/sodipodi-0.dtd" xmlns:svg="http://www.w3.org/2000/svg"
	 xmlns="http://www.w3.org/2000/svg" xmlns:xlink="http://www.w3.org/1999/xlink" x="0px" y="0px" viewBox="0 0 549.9 107.7"
	 style="enable-background:new 0 0 549.9 107.7;" xml:space="preserve">
<style type="text/css">
	.st0{fill:#444444;}
	.st1{fill:#2D7F83;}
	.st2{enable-background:new    ;}
</style>
<sodipodi:namedview  bordercolor="#666666" borderopacity="1.0" id="base" inkscape:current-layer="layer1" inkscape:cx="247.03097" inkscape:cy="260.40878" inkscape:document-units="px" inkscape:pageopacity="0.0" inkscape:pageshadow="2" inkscape:window-height="1648" inkscape:window-maximized="1" inkscape:window-width="3072" inkscape:window-x="-11" inkscape:window-y="-11" inkscape:zoom="1.7469907" pagecolor="#ffffff" showgrid="false">
	</sodipodi:namedview>
<g id="layer1" transform="translate(0,-917.71721)" inkscape:groupmode="layer" inkscape:label="Ebene 1">
	<path id="path3013" inkscape:connector-curvature="0" sodipodi:nodetypes="ccccccccccc" class="st0" d="M55.6,923.1L6,972.5
		l49.6,49.3l32.9-33.2l-2.2-1.1l-30.6,27.5L9.5,972.8l46.2-42.4l29.5,29.2l3.3-3.3L55.6,923.1z"/>
	<path id="path3048" inkscape:connector-curvature="0" class="st0" d="M140.6,952c1.7,0,3.3,0.2,4.9,0.5c1.6,0.3,3,0.7,4.3,1.2
		c1.5,0.5,2.9,1.1,4.1,1.6l-2.9,6.7c-1.1-0.5-2.3-1-3.4-1.4c-1-0.3-2-0.7-3.2-1c-1.2-0.3-2.3-0.5-3.5-0.5c-1.3,0-2.5,0.3-3.4,0.9
		c-0.9,0.6-1.4,1.6-1.4,2.8c0,3.3,2.4,5.8,7.1,7.7c1.8,0.7,3.4,1.4,4.8,2.2c1.4,0.8,2.7,1.7,3.7,2.7c1,1,1.8,2.2,2.3,3.6
		c0.5,1.3,0.8,2.9,0.8,4.8c0,1.6-0.3,3.2-1,4.7c-0.7,1.5-1.6,2.9-2.9,4.1c-1.3,1.2-2.9,2.2-4.7,2.9c-1.9,0.7-4,1.1-6.3,1.1
		c-1.9,0-3.8-0.2-5.6-0.6c-1.8-0.4-3.5-0.9-4.9-1.4s-2.6-1-3.5-1.5l-1.3-0.6l3.2-7.2l1.1,0.6c0.7,0.5,1.7,0.9,2.8,1.5
		c1.1,0.5,2.4,1,3.7,1.4c1.3,0.4,2.5,0.6,3.6,0.6c2,0,3.5-0.4,4.5-1.2c1-0.8,1.5-1.9,1.5-3.2c0-1.5-0.5-2.9-1.6-4.1
		c-1.1-1.2-2.6-2.2-4.8-3.1c-4.4-1.7-7.6-3.6-9.5-5.7c-1.9-2.1-2.9-4.9-2.9-8.3c0-1.6,0.4-3.1,1.1-4.6c0.7-1.5,1.8-2.8,3.1-3.9
		c1.3-1.1,2.8-2,4.6-2.6C136.6,952.3,138.5,952,140.6,952L140.6,952z"/>
	<path id="path3050" inkscape:connector-curvature="0" class="st0" d="M180.4,952c6.6,0,11.4,1.9,14.4,5.8c3,3.9,4.5,9.3,4.5,16.1
		c0,3.2-0.4,6.2-1.2,9c-0.8,2.8-2,5.2-3.7,7.2c-1.6,2-3.7,3.6-6.1,4.8c-2.5,1.2-5.3,1.8-8.6,1.8c-3.3,0-6.1-0.5-8.5-1.5
		c-2.4-1-4.3-2.5-5.9-4.3c-1.5-1.9-2.7-4.2-3.4-6.9c-0.7-2.7-1.1-5.7-1.1-9.1c0-3.3,0.4-6.3,1.2-9.1c0.8-2.8,2-5.2,3.7-7.2
		c1.6-2,3.7-3.6,6.1-4.8C174.2,952.6,177.1,952,180.4,952L180.4,952z M179.5,959.2c-1.7,0-3,0.4-4.1,1.1c-1.1,0.7-1.9,1.8-2.5,3.1
		c-0.6,1.3-1,2.9-1.2,4.7c-0.2,1.8-0.3,3.7-0.3,5.8c0,2.1,0.1,4.1,0.4,6c0.3,1.9,0.7,3.5,1.4,4.9c0.7,1.4,1.6,2.5,2.8,3.3
		s2.7,1.2,4.5,1.2c1.7,0,3-0.4,4.1-1.1c1.1-0.7,1.9-1.8,2.5-3.1c0.6-1.3,1-2.9,1.2-4.7c0.2-1.8,0.3-3.7,0.3-5.8c0-2.1-0.1-4.1-0.4-6
		c-0.3-1.9-0.7-3.6-1.4-5s-1.6-2.6-2.8-3.4C182.8,959.6,181.3,959.2,179.5,959.2L179.5,959.2z"/>
	<path id="path3052" inkscape:connector-curvature="0" class="st0" d="M233,953.4h10v22.1c0,3.4,0.2,6.3,0.6,8.6
		c0.4,2.3,0.9,4.2,1.4,5.6c0.6,1.7,1.3,3.1,2.1,4l-7.7,3.1c-0.7-0.6-1.3-1.4-1.9-2.4c-0.5-0.8-0.9-1.8-1.4-3c-0.5-1.2-0.8-2.6-1-4.2
		c-1.6,3.4-3.8,5.8-6.6,7.2c-2.8,1.4-5.8,2.2-8.8,2.2c-4.6,0-7.8-1.3-9.8-4c-1.9-2.6-2.9-6.2-2.9-10.8v-28.5h10v28.4
		c0,2.4,0.4,4.3,1.3,5.7c0.9,1.4,2.3,2.1,4.4,2.1c1.3,0,2.5-0.4,3.7-1.1c1.2-0.7,2.3-1.7,3.3-3.1c1-1.3,1.8-2.9,2.4-4.8
		c0.6-1.9,0.9-3.9,0.9-6.2V953.4z"/>
	<path id="path3054" inkscape:connector-curvature="0" class="st0" d="M274.8,961.6c-1.1,0-2.1,0.3-3.2,0.8c-1.1,0.5-2,1.2-2.8,2.1
		c-0.8,0.9-1.5,2-2,3.2c-0.5,1.3-0.8,2.7-0.8,4.2v23.6h-10v-21.7c0-3.4-0.2-6.3-0.7-8.6c-0.5-2.3-1-4.2-1.5-5.6
		c-0.6-1.7-1.3-3-2.1-4l7.9-3.1c0.5,0.6,1.1,1.4,1.7,2.3c0.5,0.8,0.9,1.7,1.4,2.8c0.5,1.1,0.8,2.4,1.1,3.9c1.2-3.3,2.9-5.7,5.1-7.2
		c2.2-1.5,4.7-2.2,7.5-2.2c1.3,0,2.6,0.2,3.8,0.5c1.2,0.3,1.7,0.5,1.7,0.5l-2.8,9.5c0.1,0-0.3-0.2-1-0.5
		C277.3,961.7,276.2,961.6,274.8,961.6L274.8,961.6z"/>
	<path id="path3056" inkscape:connector-curvature="0" class="st0" d="M310,963.1c-0.9-1-1.7-1.8-2.6-2.5c-0.9-0.7-2.1-1-3.6-1
		c-0.9,0-1.8,0.1-2.9,0.4s-2,0.9-3,1.9c-0.9,1-1.7,2.5-2.3,4.4c-0.6,1.9-0.9,4.6-0.9,7.9c0,3.4,0.3,6.1,0.9,8c0.6,2,1.4,3.5,2.3,4.6
		c0.9,1.1,2,1.8,3.1,2.1c1.1,0.3,2.1,0.5,3.2,0.5c0.8,0,1.6-0.1,2.5-0.2c0.9-0.1,1.7-0.3,2.5-0.5c0.8-0.2,1.5-0.4,2.1-0.6
		c0.6-0.2,1-0.3,1.3-0.4l2.4,6.2c-0.2,0.1-0.6,0.2-1.2,0.5c-0.6,0.3-1.4,0.6-2.4,0.9c-1,0.3-2.3,0.6-3.7,0.8c-1.4,0.3-3,0.4-4.8,0.4
		c-3.3,0-6.2-0.5-8.5-1.5c-2.3-1-4.3-2.4-5.8-4.3c-1.5-1.8-2.6-4-3.4-6.6c-0.7-2.6-1.1-5.4-1.1-8.6c0-3.8,0.5-7.1,1.5-10.1
		c1-2.9,2.4-5.4,4.2-7.3c1.8-2,3.9-3.5,6.3-4.5c2.4-1,5-1.5,7.7-1.5c2.7,0,5,0.5,6.8,1.5c1.9,1,3.5,2.5,4.8,4.3L310,963.1z"/>
	<path id="path3058" inkscape:connector-curvature="0" class="st0" d="M319.4,975.5c0-3.8,0.5-7.2,1.6-10.1c1.1-2.9,2.5-5.4,4.4-7.4
		c1.9-2,4.1-3.5,6.6-4.5c2.5-1,5.2-1.5,8.2-1.5c2.6,0,4.8,0.3,6.6,0.9c1.8,0.6,3.3,1.5,4.4,2.6c1.1,1.1,2,2.4,2.5,3.9
		c0.5,1.5,0.8,3.1,0.8,4.8c0,2.1-0.6,4-1.7,5.9c-1.1,1.9-2.8,3.5-4.9,4.9c-2.1,1.4-4.7,2.5-7.8,3.4c-3,0.8-6.4,1.3-10.2,1.3
		c0.2,1.3,0.4,2.6,0.8,3.7c0.4,1.2,0.9,2.2,1.6,3.1s1.6,1.6,2.8,2.1c1.1,0.5,2.6,0.8,4.3,0.8c1.3,0,2.6-0.1,4-0.4
		c1.4-0.3,2.8-0.6,4-1c1.4-0.5,2.8-1,4.2-1.5l2.6,6.1c-1.5,0.7-3.1,1.4-4.8,2c-1.5,0.5-3.2,1-5.2,1.4c-1.9,0.4-4,0.6-6.2,0.6
		c-3.3,0-6.2-0.5-8.5-1.5c-2.3-1-4.3-2.4-5.8-4.3c-1.5-1.8-2.6-4-3.3-6.6C319.8,981.5,319.4,978.6,319.4,975.5L319.4,975.5z
		 M339.4,958.7c-1.9,0-3.5,0.4-4.7,1.3c-1.2,0.9-2.2,2-3,3.4c-0.7,1.4-1.3,3-1.6,4.7s-0.5,3.5-0.6,5.3c2.7-0.1,5.1-0.5,7-1.1
		c1.9-0.6,3.5-1.3,4.7-2.2c1.2-0.9,2.1-1.8,2.6-2.9c0.5-1,0.8-2.1,0.8-3.1c0-1.7-0.5-3-1.5-4C342.3,959.2,341,958.7,339.4,958.7
		L339.4,958.7z"/>
	<path id="path3023" inkscape:connector-curvature="0" class="st1" d="M66.6,949.9c-1.4-0.8-2.8-1.4-3.7-1.7l-3.5,3.9
		c-3.8-1.1-7.8-1-11.5,0l-3.5-3.9c-2,0.5-5.8,2.7-7.1,4.1l1.7,5c-1.4,1.3-2.6,2.9-3.6,4.6c-1,1.7-1.7,3.6-2.2,5.4l-5.2,1
		c-0.3,1-0.4,2.6-0.4,4.2c0,1.6,0.1,3.1,0.4,4l5.1,1c0.9,3.7,2.9,7.2,5.8,10l-1.7,5c1.5,1.5,5.2,3.7,7.1,4.1l3.5-3.9
		c3.8,1.1,7.8,1,11.5,0l3.5,3.9c1-0.3,2.5-0.9,3.8-1.7c1.4-0.8,2.6-1.7,3.3-2.4l-1.7-5c1.4-1.3,2.6-2.9,3.6-4.6
		c1-1.7,1.7-3.5,2.2-5.4l5.2-1.1c0.5-2,0.6-6.3,0-8.2l-5.2-1.1c-0.9-3.7-2.9-7.2-5.7-10l1.7-5C69.3,951.6,68,950.6,66.6,949.9
		L66.6,949.9z M60,961.5c6,3.5,8.1,11.2,4.6,17.2c-3.5,6-11.2,8.1-17.2,4.6c-6-3.5-8.1-11.2-4.6-17.2C46.3,960.1,54,958.1,60,961.5z
		"/>
	<circle id="path3025" class="st1" cx="53.7" cy="972.4" r="8.2"/>
	<path id="path3027" inkscape:connector-curvature="0" class="st1" d="M94.4,955.3c-1,0-2,0.1-2.7,0.3l-0.7,3.4
		c-2.5,0.6-4.8,2-6.6,3.8l-3.3-1.1c-1,1-2.4,3.4-2.7,4.7l2.6,2.3c-0.3,1.2-0.5,2.5-0.5,3.8c0,1.3,0.2,2.6,0.5,3.8l-2.6,2.3
		c0.2,0.7,0.6,1.6,1.1,2.5c0.5,0.9,1.1,1.7,1.6,2.2l3.3-1.1c1.8,1.8,4,3.2,6.6,3.8l0.7,3.4c1.3,0.4,4.2,0.4,5.4,0l0.7-3.4
		c2.5-0.6,4.8-2,6.6-3.8l3.3,1.1c0.5-0.5,1.1-1.3,1.6-2.2c0.5-0.9,0.9-1.8,1.1-2.4l-2.6-2.3c0.3-1.2,0.5-2.5,0.5-3.8
		c0-1.3-0.2-2.6-0.5-3.8l2.6-2.3c-0.4-1.3-1.8-3.8-2.7-4.7l-3.3,1.1c-1.8-1.8-4-3.2-6.6-3.8l-0.7-3.4
		C96.5,955.4,95.4,955.3,94.4,955.3L94.4,955.3z M94.5,964.1c4.6,0,8.3,3.7,8.3,8.3s-3.7,8.3-8.3,8.3c-4.6,0-8.3-3.7-8.3-8.3
		S89.9,964.1,94.5,964.1z"/>
	<circle id="path3029" class="st1" cx="94.5" cy="972.4" r="5.4"/>
	<g class="st2">
		<path class="st1" d="M364,939.1c1.7,0,11.4-0.2,16.7-0.2c19.1,0,28.4,9.8,28.4,28.6c0,19-9.2,29.3-29.5,29.3
			c-7,0-13.8-0.2-15.6-0.2V939.1z M374.1,946.6v42.6c1.3,0.1,3,0.1,6.7,0.1c11.8,0,17.3-7.1,17.3-20.8c0-13.2-5-21.9-18.6-21.9
			C376.9,946.5,375.1,946.6,374.1,946.6z"/>
		<path class="st1" d="M418.6,939.1h34.2v7.7h-24.1v16.1h19.8l-1.3,7.7h-18.5V989h25.3v7.7h-35.4V939.1z"/>
		<path class="st1" d="M495.5,942.9l-4.2,7.3c0.1,0-6.7-3.9-12-3.9c-4.1,0-7.6,1.9-7.6,6c0,5.1,3.2,8,10.2,10.7
			c9,3.6,14.5,7.5,14.5,16.9c0,8.7-6.7,17.3-19.1,17.3c-8.8,0-16.2-4.2-18.4-5.5l3.6-7.8c-0.1,0,9.4,5.4,14.2,5.4
			c6,0,8.9-3.1,8.9-8.4c0-5.1-3.2-7-8.5-9.1c-10.2-4.3-16.3-8.2-16.3-18.1c0-8.3,7.6-15.3,18.1-15.3
			C486.7,938.4,493.9,941.7,495.5,942.9z"/>
		<path class="st1" d="M505.3,939.1h10.1v57.5h-10.1V939.1z M529.3,966.7l20.9,29.9h-11.7l-21.9-31.1V965
			c10.5-3.8,15.6-12.8,18.7-25.8h9.9C541.6,956.1,536.5,962,529.3,966.7z"/>
	</g>
</g>
</svg>